<svg role="img" viewBox="0 0 24 24" xmlns="http://www.w3.org/2000/svg"><title>Adobe After Effects</title><path d="M9.446 10.05c-.072-.364-.181-.87-.253-1.378h-.036a33.954 33.954 0 0 1-.255 1.383L7.66 15.03h3.022l-1.236-4.98Zm11.051-7.551H3.503C1.571 2.5 0 4.071 0 6.003v11.994C0 19.929 1.571 21.5 3.503 21.5h16.994c1.932 0 3.503-1.571 3.503-3.503V6.003c0-1.932-1.571-3.504-3.503-3.504Zm-6.635 14.323c0 .127-.073.181-.254.181h-1.85c-.181 0-.252-.072-.252-.253l.074-10.073c0-.144.072-.217.253-.217h1.777c.181 0 .253.109.253.253v1.777c.833-1.597 1.995-2.213 3.463-2.249a.2.2 0 0 1 .181.218v1.885c0 .181-.073.253-.254.217-1.885-.108-3.39.87-3.39 3.336v4.925Zm-9.005.072c-.072.109-.145.145-.253.145H2.617c-.145 0-.181-.073-.145-.181l3.897-10.256c.072-.145.109-.253.181-.542.073-.253.11-.58.11-.87a.183.183 0 0 1 .18-.145h2.54c.109 0 .181.036.181.109l4.148 11.676c.036.109-.036.181-.144.181h-2.177c-.144 0-.253-.072-.289-.18l-.906-2.757H6.093l-.906 2.748c-.036.108-.145.18-.253.18H2.797c-.109 0-.144-.072-.109-.18l4.15-10.908c-.037.181-.109.362-.145.506-.109.362-.181.725-.29 1.088l-3.535 9.386Z"/></svg>